<svg xmlns="http://www.w3.org/2000/svg" width="128" height="29" fill="none"><path d="M79.724 28.467c.044 0 .083.028.113.085a.388.388 0 0 1 .044.182c0 .065-.01.121-.035.182-.024.056-.063.084-.122.084-.74 0-1.346-.047-1.811-.136-.949-.19-1.762-.602-1.762-1.686v-2.08a8.206 8.206 0 0 1-1.101.202c-1.41.178-2.867.068-4.165-.552a7.46 7.46 0 0 1-2.3-1.696 7.916 7.916 0 0 1-1.557-2.504c-1.135-2.884-.547-6.358 1.556-8.634a7.46 7.46 0 0 1 2.3-1.696c1.587-.753 3.55-.823 5.233-.36.646.178 1.16.393 1.541.645.387.252.661.518.823.794.161.276.245.514.245.71 0 .645-.764 1.534-1.351 1.738-.162.056-.245-.028-.245-.252 0-.383-.098-.734-.299-1.051a3.03 3.03 0 0 0-.778-.827c-1.122-.824-2.71-1.036-3.9-.253-.505.332-.955.795-1.347 1.379-1.384 2.08-1.657 5.004-.944 7.377.235.8.553 1.486.944 2.056.984 1.444 2.537 2.216 4.224 1.598a4.453 4.453 0 0 0 1.121-.594v-4.625c0-.084-.01-.2-.034-.35-.05-.302-.168-.6-.421-.804-.127-.108-.299-.159-.524-.159-.21 0-.222-.533 0-.533.725 0 1.322.047 1.787.136.465.093.827.215 1.086.369.519.308.68.804.68 1.336v8.611c0 .084.01.201.035.35.024.15.068.29.132.426a1.1 1.1 0 0 0 .299.36c.132.107.313.158.533.158v.014Zm10.516-4.134c.227 0 .243.589 0 .589-.702 0-1.273-.042-1.7-.12-.434-.076-.772-.185-1.02-.33-.441-.256-.655-.664-.688-1.171l-.026-.61a5.924 5.924 0 0 1-.73.868c-.311.315-.723.62-1.236.913-1.35.724-2.984.318-3.657-1.114-.556-1.187-.15-2.857.635-3.84.83-1.042 2.026-1.752 3.308-2.06a7.26 7.26 0 0 1 1.68-.222c0-.361-.01-.702-.037-1.032-.06-.754-.272-1.688-1.184-1.688-1.19 0-1.58 1.215-1.58 2.23 0 .123-.116.185-.348.185-.702 0-1.882-.456-1.882-1.306 0-1.202 1.867-1.714 2.77-1.889a6.478 6.478 0 0 1 1.21-.129c.702 0 1.273.057 1.717.166.438.108.782.258 1.02.443.439.343.638.86.67 1.41v7.288c0 .093.011.222.038.387.053.33.211.63.475.867.138.119.323.175.566.175v-.01Zm-5.495-1.615c.301 0 .576-.057.814-.176s.444-.258.613-.423c.169-.165.301-.346.407-.542.105-.196.18-.372.227-.532v-2.73c-1.119 0-2.29.611-2.965 1.507-.248.33-.412.707-.49 1.13-.168.957.41 1.766 1.389 1.766h.005Zm23.981 1.615c.048 0 .09.031.122.093a.513.513 0 0 1 .058.201c.005.073 0 .14-.037.202-.032.061-.079.093-.143.093-.798 0-1.421-.052-1.87-.155-.449-.104-.788-.238-1.02-.408-.465-.34-.518-.916-.518-1.456v-4.872c0-.702-.148-1.25-.444-1.642-.296-.392-.666-.588-1.115-.588-.866 0-1.521 1.026-1.87 1.708v5.39c0 .29.058.592.179.856.074.15.175.279.312.397.137.12.322.176.565.176.048 0 .09.03.122.093a.496.496 0 0 1 .01.403c-.021.061-.068.092-.132.092-.798 0-1.421-.051-1.87-.154-.449-.104-.788-.238-1.02-.408-.465-.34-.518-.916-.518-1.456v-4.872c0-.702-.153-1.25-.454-1.642-.302-.392-.671-.588-1.105-.588-.816 0-1.51.973-1.839 1.63-.121.244-.18.419-.18.527v4.945c0 .093.011.222.038.387.053.333.181.632.454.867.137.12.322.176.566.176.047 0 .09.03.121.093a.513.513 0 0 1 .058.201.33.33 0 0 1-.037.201c-.032.062-.08.093-.143.093h-4.46c-.274 0-.245-.588 0-.588.238 0 .429-.057.566-.176.275-.237.412-.536.454-.867.027-.165.037-.294.037-.387V15.61c0-.463-.134-.946-.491-1.254-.137-.119-.322-.176-.565-.176-.25 0-.273-.588 0-.588.686 0 1.252.041 1.69.118.44.078.783.186 1.02.33.238.14.407.31.502.507.217.446.18.956.196 1.44.292-.57.651-1.117 1.104-1.57.238-.237.508-.428.803-.588a2.06 2.06 0 0 1 .973-.232c.798 0 1.432.217 1.897.655.465.44.782 1.053.962 1.853.459-.897 1.058-1.736 1.934-2.255.296-.17.628-.258.993-.258 1.009 0 1.749.34 2.219 1.017.471.681.74 1.62.804 2.823h.026v5.461c0 .291.058.593.18.857.074.15.174.279.312.397.137.119.322.176.565.176l-.011.01Zm9.484-1.29c.33-.193.632.522.265.702a4.67 4.67 0 0 0-.418.294c-.201.15-.454.3-.756.46a5.71 5.71 0 0 1-1.067.407 4.744 4.744 0 0 1-1.332.176 4.205 4.205 0 0 1-1.965-.47c-1.216-.63-2.146-1.703-2.674-3.118a6.334 6.334 0 0 1-.396-2.25c0-1.359.428-2.74 1.273-3.804a5.465 5.465 0 0 1 1.416-1.265 4.91 4.91 0 0 1 1.749-.666c.191-.046.455-.072.793-.072 1.215 0 2.108.258 2.684.774.576.516.862 1.141.862 1.874 0 1.55-1.063 2.758-2.267 3.592a10.64 10.64 0 0 1-1.881 1.053c-.64.274-1.152.49-1.538.646.599 1.43 1.8 2.315 3.361 2.214.368-.027 1.895-.55 1.891-.547Zm-3.117-8.527c-.386 0-.73.124-1.031.361-.306.243-.565.573-.792.996-.444.847-.698 2.034-.698 3.376 0 .392.042.805.122 1.244.433-.217.872-.46 1.321-.712a6.52 6.52 0 0 0 1.21-.888c.781-.73 1.236-1.697 1.236-2.777 0-.439-.121-.81-.37-1.125-.248-.315-.581-.47-.993-.47l-.005-.005Zm10.894 4.418c.433.398.798.774 1.094 1.125.295.351.523.697.681 1.043.159.346.238.717.238 1.125 0 .831-.47 1.565-1.115 2.05-.343.258-.75.459-1.21.598a5.21 5.21 0 0 1-1.511.212 6.817 6.817 0 0 1-1.586-.165c-.888-.215-1.455-.569-1.754-.997a1.137 1.137 0 0 1-.217-.645c0-.66.725-1.65 1.343-1.79.158-.042.232.066.216.314-.035.597.32 1.15.719 1.559.222.227.47.402.745.526.759.35 1.818-.03 1.865-.96.054-1.07-.967-2.095-1.654-2.766-.433-.424-.803-.8-1.115-1.136a6.537 6.537 0 0 1-.755-.96 3.83 3.83 0 0 1-.434-.94c-.331-1.114-.063-2.178.841-2.916.285-.232.607-.418.961-.552a3.339 3.339 0 0 1 1.031-.222c.894-.048 1.869.048 2.652.527.592.36.899.84.899 1.274 0 .537-.437 1.082-.803 1.43-.201.186-.381.305-.539.351-.159.047-.233-.062-.217-.33a2.008 2.008 0 0 0-.132-.81c-.27-.739-.99-1.62-1.866-1.373a1.21 1.21 0 0 0-.549.36c-.317.362-.38.925-.095 1.606.393.954 1.558 1.796 2.267 2.462ZM8.45 15.159c1.44 1.413 2.513 2.656 3.1 3.77a3.852 3.852 0 0 1-.027 3.57c-1.093 2.025-3.497 2.79-5.649 2.79-1.577 0-3.357-.196-4.689-1.14-1.39-.957-1.597-2.287-.41-3.507.27-.28.853-.688.853-.01 0 1.273 1.67 2.256 2.662 2.655 1.051.422 2.484.487 3.382-.332 1.166-1.064.148-2.746-.608-3.705-1.237-1.569-2.929-2.679-4.204-4.214-1.122-1.363-1.723-2.631-1.893-3.807-.26-1.685.222-3.16 1.525-4.268 1.826-1.534 4.47-1.653 6.679-1.017.762.22 1.376.487 1.845.808.926.63 1.647 1.66.971 2.731-.305.49-.737 1.102-1.302 1.307-.192.07-.287-.038-.287-.316 0-.955-.552-1.774-1.28-2.34-1.01-.77-3.105-1.52-4.13-.407-.788.857-.63 2.156-.24 3.159.665 1.71 2.455 3.048 3.702 4.273Z" fill="#fff"/><path d="M23.066 24.591c.395 0 .395.64.005.614-.72 0-1.302-.04-1.744-.124-.913-.163-1.667-.553-1.743-1.564l-.025-.806c-.13.242-.288.514-.477.806-.552.854-1.393 1.683-2.464 1.683-2.247 0-2.988-2.04-3.09-4.009h-.024v-5.696c0-.483-.134-.979-.502-1.307-.139-.123-.333-.183-.576-.183-.23 0-.251-.613-.005-.613.8 0 1.436.054 1.902.158 1.088.242 1.58.83 1.58 1.95v5.097c0 .738.154 1.302.457 1.703.303.4.686.599 1.147.599.833 0 1.558-1.01 1.873-1.693.114-.247.174-.425.174-.54v-5.171c0-.674-.297-1.495-1.078-1.495-.23 0-.25-.613-.005-.613.8 0 1.436.054 1.903.158 1.108.247 1.58.806 1.58 1.94v7.602c0 1.115.47 1.355 1.112 1.504Zm6.884 0c.24 0 .275.614 0 .614h-4.56c-.282 0-.25-.614 0-.614.244 0 .437-.059.576-.183.369-.328.502-.823.502-1.306V9.517c0-.1-.01-.233-.035-.401-.081-.569-.426-1.109-1.043-1.109-.25 0-.282-.614 0-.614.8 0 1.436.055 1.903.159.613.136 1.342.402 1.495 1.099.054.267.084.559.084.866v13.585c0 .482.134.979.502 1.306.139.124.333.183.576.183Zm7.109-1.247c.23-.298.877.269.705.56-.164.277-.343.5-.541.672-.863.753-2.25.796-3.274.392-1.174-.465-1.455-1.552-1.455-2.727v-7.602h-2.037c-.663 0-.197-.795.05-.99.213-.173.432-.257.66-.257h1.327v-1.124c0-.673-.301-1.49-1.078-1.49-.232 0-.259-.613-.005-.613.8 0 1.435.054 1.902.158 1.087.242 1.58.82 1.58 1.94v1.124h1.813c.179 0 .268.089.268.267v.708c0 .178-.09.267-.268.267h-1.813v8.042c0 .47.094.95.467 1.267.338.298 1.014.221 1.301-.109.034-.039.397-.488.398-.485Zm11.197 1.247c.23 0 .251.614.005.614-.72 0-1.301-.04-1.743-.123-.442-.08-.79-.194-1.044-.342-.702-.412-.725-1.148-.725-1.856a5.785 5.785 0 0 1-.75.906c-.318.326-.74.643-1.262.955-1.394.765-3.054.317-3.74-1.163-.238-.515-.298-1.168-.184-1.965.211-1.471 1.136-2.664 2.38-3.42a6.667 6.667 0 0 1 1.838-.772c.635-.153 1.212-.232 1.718-.232 0-.377-.01-.733-.035-1.074a4.176 4.176 0 0 0-.158-.906c-.085-.262-.204-.47-.368-.623-.164-.154-.392-.233-.686-.233-1.233 0-1.614 1.28-1.614 2.321 0 .129-.12.198-.357.198a2.33 2.33 0 0 1-.785-.158c-.521-.188-1.143-.588-1.143-1.213 0-.807.872-1.291 1.51-1.564a6.635 6.635 0 0 1 2.563-.534c.72 0 1.302.059 1.754.173.447.114.795.267 1.043.465.243.193.417.42.517.673.099.253.154.52.173.792v7.602c0 .099.01.232.035.4a1.464 1.464 0 0 0 .492.906.944.944 0 0 0 .566.174Zm-4.157-2.31c.173-.174.313-.362.417-.565a3.44 3.44 0 0 0 .233-.554v-2.85c-.328 0-.68.059-1.053.182-1.172.384-2.244 1.296-2.474 2.569-.084.475 0 .9.234 1.277.597.942 1.993.569 2.643-.06Zm17.096 2.924c-.929 0-2.186.028-2.97-.584a1.196 1.196 0 0 1-.442-.658 3.553 3.553 0 0 1-.1-.856v-5.083c0-.998-.411-2.321-1.604-2.321-.248 0-.497.094-.74.282a3.735 3.735 0 0 0-1.133 1.415c-.114.253-.174.436-.174.55v5.157c0 .482.134.979.502 1.306.14.124.333.183.576.183.23 0 .251.614.005.614h-4.56c-.246 0-.225-.614.005-.614.244 0 .437-.059.576-.183.37-.328.502-.823.502-1.306v-7.602c0-.483-.133-.979-.502-1.307-.139-.123-.332-.183-.576-.183-.23 0-.25-.613-.005-.613.72 0 1.297.04 1.734.123.437.085.78.198 1.033.342.753.426.72 1.288.72 2.029.13-.262.293-.54.482-.832a4.88 4.88 0 0 1 .65-.806c1.14-1.113 3.113-1.228 4.104.213.487.707.76 1.692.824 2.944v5.692c0 .099.01.232.035.4.025.174.08.337.16.49.187.363.497.6.908.6.348 0 .262.608-.01.608Z" fill="#fff"/><path d="M69.238 7.417A10.177 10.177 0 0 1 63.327 0a10.168 10.168 0 0 1-5.911 7.417c-.595.261-2.073.665-2.073.665s1.48.403 2.073.666a10.177 10.177 0 0 1 5.91 7.417 10.168 10.168 0 0 1 5.912-7.417c.595-.261 2.073-.666 2.073-.666s-1.48-.402-2.073-.665Z" fill="#F9C719"/></svg>